<?xml version="1.0" encoding="UTF-8" standalone="no"?>
<svg
   xmlns:dc="http://purl.org/dc/elements/1.1/"
   xmlns:rdf="http://www.w3.org/1999/02/22-rdf-syntax-ns#"
   xmlns:svg="http://www.w3.org/2000/svg"
   xmlns="http://www.w3.org/2000/svg"
   width="16"
   height="16"
   version="1.1"
   id="svg7384">
  <defs
     id="defs7386" />
  <g
     style="display:inline"
     id="layer9"
     transform="translate(-199.99995,-496)" />
  <g
     id="layer10"
     transform="translate(-199.99995,-496)" />
  <g
     id="layer11"
     transform="translate(-199.99995,-496)" />
  <g
     id="layer13"
     transform="translate(-199.99995,-496)" />
  <g
     id="layer14"
     transform="translate(-199.99995,-496)" />
  <g
     id="layer15"
     transform="translate(-199.99995,-496)" />
  <ellipse
     r="6"
     cy="6"
     cx="8"
     id="path4144"
     style="opacity:1;fill:#ffffff;fill-opacity:1;stroke:none;stroke-width:30;stroke-linecap:round;stroke-linejoin:miter;stroke-miterlimit:4;stroke-dasharray:none;stroke-opacity:1" />
  <rect
     y="11"
     x="5"
     height="2"
     width="6"
     id="rect4148"
     style="opacity:1;fill:#eeeeec;fill-opacity:1;stroke:none;stroke-width:30;stroke-linecap:round;stroke-linejoin:miter;stroke-miterlimit:4;stroke-dasharray:none;stroke-opacity:1" />
  <rect
     y="13.499999"
     x="5"
     height="1.5"
     width="6"
     id="rect4150"
     style="opacity:1;fill:#eeeeec;fill-opacity:1;stroke:none;stroke-width:30;stroke-linecap:round;stroke-linejoin:miter;stroke-miterlimit:4;stroke-dasharray:none;stroke-opacity:1" />
  <rect
     ry="0.5"
     y="14.5"
     x="7"
     height="1.5"
     width="2"
     id="rect4152"
     style="opacity:1;fill:#eeeeec;fill-opacity:1;stroke:none;stroke-width:30;stroke-linecap:round;stroke-linejoin:miter;stroke-miterlimit:4;stroke-dasharray:none;stroke-opacity:1" />
  <path
     style="opacity:1;fill:#eeeeec;fill-opacity:1;stroke:none;stroke-width:30;stroke-linecap:round;stroke-linejoin:miter;stroke-miterlimit:4;stroke-dasharray:none;stroke-opacity:1"
     d="M 14,5.9997458 A 6,6 0 0 1 8,11.999746 6,6 0 0 1 2,5.9997458 6,6 0 0 1 8,-2.5415421e-4 6,6 0 0 1 14,5.9997458 Z"
     id="path4146" />
</svg>

